# Blender v2.79 (sub 0) OBJ File: ''
# www.blender.org
o Plane
v -5.000000 0.000000 5.000000
v -6.000000 0.000000 5.000000
v -5.000000 0.000000 6.000000
v -6.000000 0.000000 6.000000
v -3.000000 0.000000 5.000000
v -4.000000 0.000000 5.000000
v -3.000000 0.000000 6.000000
v -4.000000 0.000000 6.000000
v -1.000000 0.000000 5.000000
v -2.000000 0.000000 5.000000
v -1.000000 0.000000 6.000000
v -2.000000 0.000000 6.000000
v 1.000000 0.000000 5.000000
v 0.000000 0.000000 5.000000
v 1.000000 0.000000 6.000000
v 0.000000 0.000000 6.000000
v 3.000000 0.000000 5.000000
v 2.000000 0.000000 5.000000
v 3.000000 0.000000 6.000000
v 2.000000 0.000000 6.000000
v 5.000000 0.000000 5.000000
v 4.000000 0.000000 5.000000
v 5.000000 0.000000 6.000000
v 4.000000 0.000000 6.000000
v 7.000000 0.000000 5.000000
v 6.000000 0.000000 5.000000
v 7.000000 0.000000 6.000000
v 6.000000 0.000000 6.000000
v -5.000000 0.000000 3.000000
v -6.000000 0.000000 3.000000
v -5.000000 0.000000 4.000000
v -6.000000 0.000000 4.000000
v -3.000000 0.000000 3.000000
v -4.000000 0.000000 3.000000
v -3.000000 0.000000 4.000000
v -4.000000 0.000000 4.000000
v -1.000000 0.000000 3.000000
v -2.000000 0.000000 3.000000
v -1.000000 0.000000 4.000000
v -2.000000 0.000000 4.000000
v 1.000000 0.000000 3.000000
v 0.000000 0.000000 3.000000
v 1.000000 0.000000 4.000000
v 0.000000 0.000000 4.000000
v 3.000000 0.000000 3.000000
v 2.000000 0.000000 3.000000
v 3.000000 0.000000 4.000000
v 2.000000 0.000000 4.000000
v 5.000000 0.000000 3.000000
v 4.000000 0.000000 3.000000
v 5.000000 0.000000 4.000000
v 4.000000 0.000000 4.000000
v 7.000000 0.000000 3.000000
v 6.000000 0.000000 3.000000
v 7.000000 0.000000 4.000000
v 6.000000 0.000000 4.000000
v -5.000000 0.000000 1.000000
v -6.000000 0.000000 1.000000
v -5.000000 0.000000 2.000000
v -6.000000 0.000000 2.000000
v -3.000000 0.000000 1.000000
v -4.000000 0.000000 1.000000
v -3.000000 0.000000 2.000000
v -4.000000 0.000000 2.000000
v -1.000000 0.000000 1.000000
v -2.000000 0.000000 1.000000
v -1.000000 0.000000 2.000000
v -2.000000 0.000000 2.000000
v 1.000000 0.000000 1.000000
v 0.000000 0.000000 1.000000
v 1.000000 0.000000 2.000000
v 0.000000 0.000000 2.000000
v 3.000000 0.000000 1.000000
v 2.000000 0.000000 1.000000
v 3.000000 0.000000 2.000000
v 2.000000 0.000000 2.000000
v 5.000000 0.000000 1.000000
v 4.000000 0.000000 1.000000
v 5.000000 0.000000 2.000000
v 4.000000 0.000000 2.000000
v 7.000000 0.000000 1.000000
v 6.000000 0.000000 1.000000
v 7.000000 0.000000 2.000000
v 6.000000 0.000000 2.000000
v -5.000000 0.000000 -1.000000
v -6.000000 0.000000 -1.000000
v -5.000000 0.000000 0.000000
v -6.000000 0.000000 0.000000
v -3.000000 0.000000 -1.000000
v -4.000000 0.000000 -1.000000
v -3.000000 0.000000 0.000000
v -4.000000 0.000000 0.000000
v -1.000000 0.000000 -1.000000
v -2.000000 0.000000 -1.000000
v -1.000000 0.000000 0.000000
v -2.000000 0.000000 0.000000
v 1.000000 0.000000 -1.000000
v 0.000000 0.000000 -1.000000
v 1.000000 0.000000 0.000000
v 0.000000 0.000000 0.000000
v 3.000000 0.000000 -1.000000
v 2.000000 0.000000 -1.000000
v 3.000000 0.000000 0.000000
v 2.000000 0.000000 0.000000
v 5.000000 0.000000 -1.000000
v 4.000000 0.000000 -1.000000
v 5.000000 0.000000 0.000000
v 4.000000 0.000000 0.000000
v 7.000000 0.000000 -1.000000
v 6.000000 0.000000 -1.000000
v 7.000000 0.000000 0.000000
v 6.000000 0.000000 0.000000
v -5.000000 0.000000 -3.000000
v -6.000000 0.000000 -3.000000
v -5.000000 0.000000 -2.000000
v -6.000000 0.000000 -2.000000
v -3.000000 0.000000 -3.000000
v -4.000000 0.000000 -3.000000
v -3.000000 0.000000 -2.000000
v -4.000000 0.000000 -2.000000
v -1.000000 0.000000 -3.000000
v -2.000000 0.000000 -3.000000
v -1.000000 0.000000 -2.000000
v -2.000000 0.000000 -2.000000
v 1.000000 0.000000 -3.000000
v 0.000000 0.000000 -3.000000
v 1.000000 0.000000 -2.000000
v 0.000000 0.000000 -2.000000
v 3.000000 0.000000 -3.000000
v 2.000000 0.000000 -3.000000
v 3.000000 0.000000 -2.000000
v 2.000000 0.000000 -2.000000
v 5.000000 0.000000 -3.000000
v 4.000000 0.000000 -3.000000
v 5.000000 0.000000 -2.000000
v 4.000000 0.000000 -2.000000
v 7.000000 0.000000 -3.000000
v 6.000000 0.000000 -3.000000
v 7.000000 0.000000 -2.000000
v 6.000000 0.000000 -2.000000
v -5.000000 0.000000 -5.000000
v -6.000000 0.000000 -5.000000
v -5.000000 0.000000 -4.000000
v -6.000000 0.000000 -4.000000
v -3.000000 0.000000 -5.000000
v -4.000000 0.000000 -5.000000
v -3.000000 0.000000 -4.000000
v -4.000000 0.000000 -4.000000
v -1.000000 0.000000 -5.000000
v -2.000000 0.000000 -5.000000
v -1.000000 0.000000 -4.000000
v -2.000000 0.000000 -4.000000
v 1.000000 0.000000 -5.000000
v 0.000000 0.000000 -5.000000
v 1.000000 0.000000 -4.000000
v 0.000000 0.000000 -4.000000
v 3.000000 0.000000 -5.000000
v 2.000000 0.000000 -5.000000
v 3.000000 0.000000 -4.000000
v 2.000000 0.000000 -4.000000
v 5.000000 0.000000 -5.000000
v 4.000000 0.000000 -5.000000
v 5.000000 0.000000 -4.000000
v 4.000000 0.000000 -4.000000
v 7.000000 0.000000 -5.000000
v 6.000000 0.000000 -5.000000
v 7.000000 0.000000 -4.000000
v 6.000000 0.000000 -4.000000
v -5.000000 0.000000 -7.000000
v -6.000000 0.000000 -7.000000
v -5.000000 0.000000 -6.000000
v -6.000000 0.000000 -6.000000
v -3.000000 0.000000 -7.000000
v -4.000000 0.000000 -7.000000
v -3.000000 0.000000 -6.000000
v -4.000000 0.000000 -6.000000
v -1.000000 0.000000 -7.000000
v -2.000000 0.000000 -7.000000
v -1.000000 0.000000 -6.000000
v -2.000000 0.000000 -6.000000
v 1.000000 0.000000 -7.000000
v 0.000000 0.000000 -7.000000
v 1.000000 0.000000 -6.000000
v 0.000000 0.000000 -6.000000
v 3.000000 0.000000 -7.000000
v 2.000000 0.000000 -7.000000
v 3.000000 0.000000 -6.000000
v 2.000000 0.000000 -6.000000
v 5.000000 0.000000 -7.000000
v 4.000000 0.000000 -7.000000
v 5.000000 0.000000 -6.000000
v 4.000000 0.000000 -6.000000
v 7.000000 0.000000 -7.000000
v 6.000000 0.000000 -7.000000
v 7.000000 0.000000 -6.000000
v 6.000000 0.000000 -6.000000
vn 0.0000 1.0000 0.0000
s off
f 4//1 3//1 1//1 2//1
f 8//1 7//1 5//1 6//1
f 12//1 11//1 9//1 10//1
f 16//1 15//1 13//1 14//1
f 20//1 19//1 17//1 18//1
f 24//1 23//1 21//1 22//1
f 28//1 27//1 25//1 26//1
f 32//1 31//1 29//1 30//1
f 36//1 35//1 33//1 34//1
f 40//1 39//1 37//1 38//1
f 44//1 43//1 41//1 42//1
f 48//1 47//1 45//1 46//1
f 52//1 51//1 49//1 50//1
f 56//1 55//1 53//1 54//1
f 60//1 59//1 57//1 58//1
f 64//1 63//1 61//1 62//1
f 68//1 67//1 65//1 66//1
f 72//1 71//1 69//1 70//1
f 76//1 75//1 73//1 74//1
f 80//1 79//1 77//1 78//1
f 84//1 83//1 81//1 82//1
f 88//1 87//1 85//1 86//1
f 92//1 91//1 89//1 90//1
f 96//1 95//1 93//1 94//1
f 100//1 99//1 97//1 98//1
f 104//1 103//1 101//1 102//1
f 108//1 107//1 105//1 106//1
f 112//1 111//1 109//1 110//1
f 116//1 115//1 113//1 114//1
f 120//1 119//1 117//1 118//1
f 124//1 123//1 121//1 122//1
f 128//1 127//1 125//1 126//1
f 132//1 131//1 129//1 130//1
f 136//1 135//1 133//1 134//1
f 140//1 139//1 137//1 138//1
f 144//1 143//1 141//1 142//1
f 148//1 147//1 145//1 146//1
f 152//1 151//1 149//1 150//1
f 156//1 155//1 153//1 154//1
f 160//1 159//1 157//1 158//1
f 164//1 163//1 161//1 162//1
f 168//1 167//1 165//1 166//1
f 172//1 171//1 169//1 170//1
f 176//1 175//1 173//1 174//1
f 180//1 179//1 177//1 178//1
f 184//1 183//1 181//1 182//1
f 188//1 187//1 185//1 186//1
f 192//1 191//1 189//1 190//1
f 196//1 195//1 193//1 194//1
