# Blender v2.79 (sub 0) OBJ File: 'acorn.blend'
# www.blender.org
mtllib acorn.mtl
o Acorn_Cylinder
v 0.012905 -0.057406 0.008407
v 0.012905 0.036326 -0.046934
v -0.042430 0.043211 -0.023541
v 0.040576 0.036326 -0.039520
v -0.050991 0.043211 0.008407
v 0.060832 0.036326 -0.019264
v -0.042430 0.043211 0.040355
v 0.068246 0.036326 0.008407
v -0.019043 0.043211 0.063742
v 0.060832 0.036326 0.036077
v 0.012905 0.043211 0.072303
v 0.040576 0.036326 0.056333
v 0.044853 0.043211 0.063742
v 0.012905 0.036326 0.063748
v 0.068241 0.043211 0.040355
v -0.014765 0.036326 0.056333
v 0.076801 0.043211 0.008407
v -0.035021 0.036326 0.036077
v 0.068241 0.043211 -0.023541
v -0.042436 0.036326 0.008407
v 0.044853 0.043211 -0.046929
v -0.035021 0.036326 -0.019264
v 0.012905 0.043211 -0.055489
v -0.014765 0.036326 -0.039520
v 0.012905 -0.049606 -0.011311
v 0.012905 -0.026317 -0.040210
v 0.012905 0.004431 -0.048499
v 0.041358 0.004431 -0.040875
v 0.037214 -0.026317 -0.033697
v 0.022764 -0.049606 -0.008669
v 0.062187 0.004431 -0.020046
v 0.055009 -0.026317 -0.015902
v 0.029982 -0.049606 -0.001452
v 0.069811 0.004431 0.008407
v 0.061522 -0.026317 0.008407
v 0.032623 -0.049606 0.008407
v 0.062187 0.004431 0.036860
v 0.055009 -0.026317 0.032715
v 0.029982 -0.049606 0.018266
v 0.041358 0.004431 0.057689
v 0.037214 -0.026317 0.050510
v 0.022764 -0.049606 0.025483
v 0.012905 0.004431 0.065313
v 0.012905 -0.026317 0.057024
v 0.012905 -0.049606 0.028125
v -0.015548 0.004431 0.057689
v -0.011403 -0.026317 0.050510
v 0.003046 -0.049606 0.025483
v -0.036377 0.004431 0.036860
v -0.029198 -0.026317 0.032715
v -0.004171 -0.049606 0.018266
v -0.044000 0.004431 0.008407
v -0.035711 -0.026317 0.008407
v -0.006813 -0.049606 0.008407
v -0.036377 0.004431 -0.020046
v -0.029198 -0.026317 -0.015902
v -0.004171 -0.049606 -0.001452
v -0.015548 0.004431 -0.040875
v -0.011403 -0.026317 -0.033697
v 0.003046 -0.049606 -0.008669
v -0.019043 0.043211 -0.046929
v -0.037572 0.066719 -0.020736
v -0.045381 0.066719 0.008407
v -0.037572 0.066719 0.037550
v -0.016238 0.066719 0.058884
v 0.012905 0.066719 0.066693
v 0.042049 0.066719 0.058884
v 0.063383 0.066719 0.037550
v 0.071192 0.066719 0.008407
v 0.063383 0.066719 -0.020736
v 0.042049 0.066719 -0.042071
v 0.012905 0.066719 -0.049880
v -0.016238 0.066719 -0.042071
v 0.001244 0.079283 0.008407
v 0.012905 0.079283 0.020068
v 0.024567 0.079283 0.008407
v 0.012905 0.079283 -0.003254
v 0.004283 0.091511 0.010241
v 0.014965 0.086244 0.021649
v 0.026717 0.085133 0.010132
v 0.016035 0.090399 -0.001276
v 0.021092 0.105325 0.019237
v 0.024177 0.094132 0.025100
v 0.032625 0.091472 0.015575
v 0.029540 0.102665 0.009713
v 0.040576 0.036326 -0.039520
v 0.012905 0.036326 -0.046934
v 0.060832 0.036326 -0.019264
v 0.068246 0.036326 0.008407
v 0.060832 0.036326 0.036077
v 0.040576 0.036326 0.056333
v 0.012905 0.036326 0.063748
v -0.014765 0.036326 0.056333
v -0.035021 0.036326 0.036077
v -0.042436 0.036326 0.008407
v -0.035021 0.036326 -0.019264
v -0.014765 0.036326 -0.039520
v 0.012905 0.079283 0.020068
v 0.024567 0.079283 0.008407
v 0.012905 0.079283 -0.003254
v 0.001244 0.079283 0.008407
v 0.024177 0.094132 0.025100
v 0.032625 0.091472 0.015575
v 0.029540 0.102665 0.009713
v 0.021092 0.105325 0.019237
vt 0.826108 0.533218
vt 0.889093 0.697364
vt 0.740872 0.751082
vt 0.692701 0.597090
vt 0.592065 0.785169
vt 0.568322 0.634447
vt 0.444341 0.794206
vt 0.446369 0.646950
vt 0.301228 0.778834
vt 0.326022 0.636495
vt 0.165161 0.744515
vt 0.205907 0.605535
vt 0.035157 0.702183
vt 0.080503 0.556675
vt 0.826105 0.533226
vt 0.889090 0.697373
vt 0.740869 0.751091
vt 0.692698 0.597098
vt 0.592061 0.785177
vt 0.568319 0.634455
vt 0.444338 0.794214
vt 0.446366 0.646957
vt 0.301225 0.778841
vt 0.326020 0.636502
vt 0.717137 0.795688
vt 0.849163 0.756603
vt 0.874196 0.806550
vt 0.727811 0.844678
vt 0.205905 0.605542
vt 0.165159 0.744521
vt 0.035154 0.702190
vt 0.080501 0.556682
vt 0.592878 0.864786
vt 0.727873 0.844695
vt 0.749376 0.949389
vt 0.606651 0.972166
vt 0.592815 0.864769
vt 0.749313 0.949373
vt 0.606588 0.972150
vt 0.575095 0.294429
vt 0.729152 0.397925
vt 0.636258 0.469387
vt 0.538679 0.330191
vt 0.323659 0.866233
vt 0.458363 0.872318
vt 0.461614 0.981232
vt 0.315875 0.975697
vt 0.542470 0.508664
vt 0.492630 0.350957
vt 0.447712 0.522541
vt 0.443080 0.357287
vt 0.458299 0.872300
vt 0.461550 0.981215
vt 0.352642 0.513543
vt 0.393473 0.349914
vt 0.189734 0.844750
vt 0.170377 0.955770
vt 0.256793 0.481222
vt 0.346988 0.329077
vt 0.323595 0.866216
vt 0.315811 0.975680
vt 0.156061 0.418083
vt 0.307443 0.294429
vt 0.189670 0.844734
vt 0.170313 0.955754
vt 0.575092 0.294437
vt 0.729149 0.397933
vt 0.636255 0.469395
vt 0.538677 0.330198
vt 0.047301 0.801300
vt 0.022635 0.922797
vt 0.542467 0.508672
vt 0.492627 0.350964
vt 0.681522 0.156291
vt 0.582092 0.250576
vt 0.449414 0.065514
vt 0.503763 0.013978
vt 0.447710 0.522548
vt 0.443077 0.357295
vt 0.587666 0.816628
vt 0.352639 0.513550
vt 0.393471 0.349922
vt 0.328384 0.818393
vt 0.458014 0.824175
vt 0.346985 0.329084
vt 0.256791 0.481229
vt 0.156059 0.418090
vt 0.307441 0.294437
vt 0.072803 0.756602
vt 0.200422 0.798420
vt 0.047238 0.801285
vt 0.587729 0.816645
vt 0.717200 0.795705
vt 0.328448 0.818410
vt 0.458077 0.824192
vt 0.072867 0.756617
vt 0.200487 0.798435
vt 0.849224 0.756618
vt 0.874257 0.806565
vt 0.022572 0.922782
vt 0.848493 0.129456
vt 0.914317 0.063631
vt 0.938411 0.105362
vt 0.938411 0.153549
vt 0.914317 0.195280
vt 0.872586 0.219374
vt 0.824399 0.219374
vt 0.782668 0.195280
vt 0.758575 0.153549
vt 0.758575 0.105362
vt 0.782668 0.063631
vt 0.824399 0.039538
vt 0.872586 0.039538
vt 0.890340 0.920695
vt 0.890402 0.920710
vt 0.722757 0.025621
vt 0.681520 0.156294
vt 0.503761 0.013981
vt 0.316737 0.250576
vt 0.217307 0.156291
vt 0.395066 0.013978
vt 0.722759 0.025618
vt 0.449414 0.284819
vt 0.217305 0.156294
vt 0.176068 0.025621
vt 0.395064 0.013981
vt 0.176070 0.025618
vt 0.582090 0.250579
vt 0.449413 0.284822
vt 0.449413 0.065517
vt 0.316735 0.250579
vt 0.872856 0.480184
vt 0.819646 0.418646
vt 0.870881 0.405409
vt 0.904401 0.471033
vt 0.924071 0.552414
vt 0.956367 0.464142
vt 0.976413 0.523644
vt 0.888053 0.560912
vt 0.807224 0.341653
vt 0.844474 0.272131
vt 0.880340 0.280194
vt 0.859403 0.345551
vt 0.140756 0.302327
vt 0.081685 0.302327
vt 0.081685 0.243257
vt 0.140756 0.243257
vt 0.959407 0.339296
vt 0.960891 0.402131
vt 0.941969 0.278124
vn 0.0000 -0.1043 -0.9945
vn 0.0000 0.0490 -0.9988
vn 0.4994 0.0490 -0.8650
vn 0.4973 -0.1043 -0.8613
vn 0.8650 0.0490 -0.4994
vn 0.8613 -0.1043 -0.4973
vn 0.9988 0.0490 0.0000
vn 0.9945 -0.1043 0.0000
vn 0.8650 0.0490 0.4994
vn 0.8613 -0.1043 0.4973
vn 0.4994 0.0490 0.8650
vn 0.4973 -0.1043 0.8613
vn 0.0000 0.0490 0.9988
vn 0.0000 -0.1043 0.9945
vn -0.4994 0.0490 0.8650
vn -0.4973 -0.1043 0.8613
vn -0.8650 0.0490 0.4994
vn -0.8613 -0.1043 0.4973
vn -0.9988 0.0490 0.0000
vn -0.9945 -0.1043 0.0000
vn -0.8650 0.0490 -0.4994
vn -0.8613 -0.1043 -0.4973
vn 0.3135 -0.7790 -0.5429
vn 0.0000 -0.7790 -0.6269
vn 0.0000 -0.2994 -0.9541
vn 0.4770 -0.2994 -0.8263
vn -0.4973 -0.1043 -0.8613
vn -0.4994 0.0490 -0.8650
vn -0.8263 -0.2994 0.4770
vn -0.4770 -0.2994 0.8263
vn -0.3775 0.6598 0.6497
vn -0.6497 0.6598 0.3775
vn 0.8263 -0.2994 -0.4770
vn 0.3775 0.6598 -0.6497
vn 0.6497 0.6598 -0.3775
vn 0.0000 -0.8532 -0.5215
vn 0.0000 -0.5241 -0.8516
vn 0.4258 -0.5241 -0.7376
vn 0.2608 -0.8532 -0.4517
vn -0.8263 -0.2994 -0.4770
vn -0.9541 -0.2994 0.0000
vn -0.7539 0.6570 0.0000
vn -0.6497 0.6598 -0.3775
vn 0.7376 -0.5241 -0.4258
vn 0.4517 -0.8532 -0.2608
vn 0.8516 -0.5241 0.0000
vn 0.5215 -0.8532 0.0000
vn 0.9541 -0.2994 0.0000
vn 0.7539 0.6570 0.0000
vn 0.7376 -0.5241 0.4258
vn 0.4517 -0.8532 0.2608
vn -0.4770 -0.2994 -0.8263
vn -0.3775 0.6598 -0.6497
vn 0.4258 -0.5241 0.7376
vn 0.2608 -0.8532 0.4517
vn 0.8263 -0.2994 0.4770
vn 0.6497 0.6598 0.3775
vn 0.0000 -0.5241 0.8516
vn 0.0000 -0.8532 0.5215
vn 0.4770 -0.2994 0.8263
vn 0.3775 0.6598 0.6497
vn -0.4258 -0.5241 0.7376
vn -0.2608 -0.8532 0.4517
vn 0.0000 0.6570 -0.7539
vn -0.7376 -0.5241 0.4258
vn -0.4517 -0.8532 0.2608
vn 0.2031 0.9792 0.0000
vn 0.0000 0.9792 0.2031
vn -0.8516 -0.5241 0.0000
vn -0.5215 -0.8532 0.0000
vn 0.5429 -0.7790 -0.3135
vn -0.7376 -0.5241 -0.4258
vn -0.4517 -0.8532 -0.2608
vn 0.5429 -0.7790 0.3135
vn 0.6269 -0.7790 0.0000
vn -0.2608 -0.8532 -0.4517
vn -0.4258 -0.5241 -0.7376
vn 0.0000 -0.7790 0.6269
vn 0.3135 -0.7790 0.5429
vn 0.0000 -0.2994 0.9541
vn -0.5429 -0.7790 0.3135
vn -0.3135 -0.7790 0.5429
vn -0.5429 -0.7790 -0.3135
vn -0.6269 -0.7790 0.0000
vn -0.3135 -0.7790 -0.5429
vn 0.0000 0.6570 0.7539
vn 0.0000 -1.0000 0.0000
vn 0.0000 0.9792 -0.2031
vn -0.2031 0.9792 0.0000
vn 0.9482 -0.2905 -0.1285
vn -0.0982 0.1888 -0.9771
vn 0.0382 0.3853 -0.9220
vn 0.8810 -0.4538 -0.1338
vn -0.1803 -0.1946 0.9641
vn 0.7784 -0.6156 -0.1227
vn -0.1629 -0.3201 0.9332
vn -0.1590 -0.1887 0.9691
vn -0.9639 0.2589 -0.0619
vn -0.8583 0.5128 0.0172
vn 0.7224 0.4664 0.5104
vn -0.6393 0.7604 0.1138
vn 0.2012 0.5151 -0.8332
usemtl acorn.material
s 1
f 27/1/1 87/2/2 86/3/3 28/4/4
f 28/4/4 86/3/3 88/5/5 31/6/6
f 31/6/6 88/5/5 89/7/7 34/8/8
f 34/8/8 89/7/7 90/9/9 37/10/10
f 37/10/10 90/9/9 91/11/11 40/12/12
f 40/12/12 91/11/11 92/13/13 43/14/14
f 43/15/14 92/16/13 16/17/15 46/18/16
f 46/18/16 16/17/15 94/19/17 49/20/18
f 49/20/18 94/19/17 20/21/19 52/22/20
f 52/22/20 20/21/19 22/23/21 55/24/22
f 4/25/23 2/26/24 23/27/25 21/28/26
f 58/29/27 24/30/28 87/31/2 27/32/1
f 55/24/22 22/23/21 24/30/28 58/29/27
f 7/33/29 9/34/30 65/35/31 64/36/32
f 19/37/33 21/28/26 71/38/34 70/39/35
f 25/40/36 26/41/37 29/42/38 30/43/39
f 26/41/37 27/1/1 28/4/4 29/42/38
f 3/44/40 5/45/41 63/46/42 62/47/43
f 30/43/39 29/42/38 32/48/44 33/49/45
f 29/42/38 28/4/4 31/6/6 32/48/44
f 5/45/41 7/33/29 64/36/32 63/46/42
f 33/49/45 32/48/44 35/50/46 36/51/47
f 32/48/44 31/6/6 34/8/8 35/50/46
f 17/52/48 19/37/33 70/39/35 69/53/49
f 36/51/47 35/50/46 38/54/50 39/55/51
f 35/50/46 34/8/8 37/10/10 38/54/50
f 61/56/52 3/44/40 62/47/43 73/57/53
f 39/55/51 38/54/50 41/58/54 42/59/55
f 38/54/50 37/10/10 40/12/12 41/58/54
f 15/60/56 17/52/48 69/53/49 68/61/57
f 42/59/55 41/58/54 44/62/58 45/63/59
f 41/58/54 40/12/12 43/14/14 44/62/58
f 13/64/60 15/60/56 68/61/57 67/65/61
f 45/66/59 44/67/58 47/68/62 48/69/63
f 44/67/58 43/15/14 46/18/16 47/68/62
f 23/70/25 61/56/52 73/57/53 72/71/64
f 48/69/63 47/68/62 50/72/65 51/73/66
f 47/68/62 46/18/16 49/20/18 50/72/65
f 67/74/61 68/75/57 99/76/67 98/77/68
f 51/73/66 50/72/65 53/78/69 54/79/70
f 50/72/65 49/20/18 52/22/20 53/78/69
f 6/80/71 4/25/23 21/28/26 19/37/33
f 54/79/70 53/78/69 56/81/72 57/82/73
f 53/78/69 52/22/20 55/24/22 56/81/72
f 10/83/74 8/84/75 17/52/48 15/60/56
f 60/85/76 59/86/77 26/87/37 25/88/36
f 59/86/77 58/29/27 27/32/1 26/87/37
f 14/89/78 12/90/79 13/64/60 11/91/80
f 57/82/73 56/81/72 59/86/77 60/85/76
f 56/81/72 55/24/22 58/29/27 59/86/77
f 18/92/81 93/93/82 9/34/30 7/33/29
f 96/94/83 95/95/84 5/45/41 3/44/40
f 2/96/24 97/97/85 61/56/52 23/70/25
f 8/84/75 6/80/71 19/37/33 17/52/48
f 12/90/79 10/83/74 15/60/56 13/64/60
f 93/93/82 14/98/78 11/99/80 9/34/30
f 95/95/84 18/92/81 7/33/29 5/45/41
f 97/97/85 96/94/83 3/44/40 61/56/52
f 11/91/80 13/64/60 67/65/61 66/100/86
f 1/101/87 25/102/36 30/103/39
f 1/101/87 30/103/39 33/104/45
f 1/101/87 33/104/45 36/105/47
f 1/101/87 36/105/47 39/106/51
f 1/101/87 39/106/51 42/107/55
f 1/101/87 42/107/55 45/108/59
f 1/101/87 45/108/59 48/109/63
f 1/101/87 48/109/63 51/110/66
f 1/101/87 51/110/66 54/111/70
f 1/101/87 54/111/70 57/112/73
f 1/101/87 60/113/76 25/102/36
f 1/101/87 57/112/73 60/113/76
f 21/28/26 23/27/25 72/114/64 71/38/34
f 9/34/30 11/99/80 66/115/86 65/35/31
f 72/116/64 73/117/53 100/118/88
f 70/119/35 71/120/34 100/121/88 99/76/67
f 66/122/86 67/74/61 98/77/68
f 68/75/57 69/123/49 99/76/67
f 69/123/49 70/119/35 99/76/67
f 65/124/31 66/125/86 98/126/68
f 71/120/34 72/127/64 100/121/88
f 62/128/43 63/129/42 101/130/89
f 63/129/42 64/131/32 101/130/89
f 64/131/32 65/124/31 98/126/68 101/130/89
f 73/117/53 62/128/43 101/130/89 100/118/88
f 76/132/90 77/133/91 81/134/92 80/135/93
f 79/136/94 80/135/93 103/137/95 102/138/96
f 75/139/97 76/132/90 80/135/93 79/136/94
f 74/140/98 75/141/97 79/142/94 78/143/99
f 77/133/91 74/140/98 78/143/99 81/134/92
f 104/144/100 105/145/100 83/146/100 84/147/100
f 81/134/92 78/143/99 82/148/101 85/149/102
f 80/135/93 81/134/92 85/149/102 103/137/95
f 78/143/99 79/142/94 102/150/96 82/148/101
